<?xml version="1.0" standalone="no"?>
<!DOCTYPE svg PUBLIC "-//W3C//DTD SVG 20010904//EN"
 "http://www.w3.org/TR/2001/REC-SVG-20010904/DTD/svg10.dtd">
<svg version="1.0" xmlns="http://www.w3.org/2000/svg"
 width="500.000000pt" height="500.000000pt" viewBox="0 0 500.000000 500.000000"
 preserveAspectRatio="xMidYMid meet">

<g transform="translate(0.000000,500.000000) scale(0.100000,-0.100000)"
fill="#000000" stroke="none">
<path d="M1526 3145 l76 -105 73 0 c39 0 106 -3 148 -6 58 -5 77 -4 77 5 0 7
-20 39 -45 70 -35 47 -53 61 -87 70 -160 43 -276 71 -295 71 -20 0 -14 -12 53
-105z"/>
<path d="M1060 2990 c-173 -125 -339 -251 -369 -280 -30 -30 -64 -76 -78 -107
-24 -52 -25 -58 -18 -206 7 -133 5 -154 -8 -166 -15 -12 -13 -18 21 -67 25
-36 42 -51 52 -47 43 17 57 13 110 -33 129 -111 293 -151 429 -105 183 63 336
241 373 434 l13 67 47 0 c46 0 48 -1 48 -27 0 -16 -9 -86 -20 -157 -11 -71
-20 -148 -20 -172 0 -39 3 -44 28 -51 36 -10 299 -10 335 0 31 8 50 44 60 110
l6 37 -124 0 c-68 0 -126 3 -128 8 -2 4 3 61 12 127 l17 120 112 5 c131 6 140
11 157 97 l12 58 -130 3 -129 3 6 32 c4 18 9 64 13 102 7 90 0 97 -110 103
-81 5 -82 4 -64 -15 20 -23 21 -46 6 -147 l-11 -74 -57 -4 c-31 -2 -58 -3 -60
-1 -7 5 -39 313 -34 332 5 20 -154 251 -172 250 -5 0 -152 -103 -325 -229z
m140 -54 c-41 -30 -181 -130 -310 -224 -129 -94 -237 -169 -239 -167 -7 8 52
98 88 134 53 53 375 281 419 297 20 7 55 13 77 14 l39 0 -74 -54z m184 21 c15
-11 -25 -43 -359 -285 -208 -149 -381 -269 -386 -266 -5 3 -9 16 -9 29 0 20
59 67 353 279 193 140 359 255 368 256 8 0 23 -6 33 -13z m80 -79 c5 -9 8 -19
6 -21 -18 -16 -775 -560 -785 -563 -6 -3 -16 6 -22 19 -11 23 2 34 375 305
213 154 393 280 401 279 8 -1 19 -10 25 -19z m56 -112 c0 -11 -762 -566 -777
-566 -5 0 -14 10 -22 22 -11 18 -11 22 0 29 8 5 185 132 394 283 338 245 381
274 393 259 6 -9 12 -22 12 -27z m18 -107 c3 -22 -36 -53 -352 -282 -196 -141
-362 -257 -371 -257 -8 0 -19 8 -24 18 -9 16 37 52 357 285 202 146 372 264
377 263 6 -1 11 -14 13 -27z m-13 -143 c-7 -33 -23 -48 -204 -178 -108 -78
-244 -176 -302 -219 l-106 -77 -26 17 -27 17 333 241 c182 132 333 239 335
238 2 -2 0 -19 -3 -39z m-26 -155 c-10 -35 -25 -50 -93 -99 -45 -32 -145 -104
-223 -161 -128 -92 -146 -102 -173 -96 -17 4 -30 11 -28 16 3 10 521 387 526
383 2 -1 -2 -21 -9 -43z m-99 -180 c-17 -33 -109 -107 -167 -136 -30 -14 -57
-25 -59 -23 -3 3 223 174 234 177 1 1 -2 -8 -8 -18z"/>
<path d="M2340 2873 c-62 -9 -72 -15 -85 -46 -7 -18 -16 -58 -20 -89 l-7 -58
80 0 79 0 6 38 c3 20 9 65 13 100 7 68 9 67 -66 55z"/>
<path d="M2217 2613 c-3 -16 -20 -133 -38 -262 -29 -205 -36 -237 -57 -262
l-24 -29 59 0 c83 0 127 15 142 47 9 20 81 485 81 526 0 4 -35 7 -79 7 -78 0
-79 0 -84 -27z"/>
<path d="M2543 2633 c-58 -7 -66 -29 -102 -283 -37 -257 -36 -273 19 -284 42
-8 428 -8 469 0 40 8 60 37 70 103 l8 51 -208 0 -209 0 0 28 c1 59 30 216 42
223 7 5 92 9 188 9 141 0 180 3 197 15 23 16 43 70 43 118 l0 27 -242 -2
c-134 0 -258 -3 -275 -5z"/>
<path d="M3150 2577 c0 -97 1 -97 212 -97 96 0 178 -3 181 -6 3 -4 2 -15 -3
-25 -9 -16 -29 -18 -200 -21 -162 -3 -192 -5 -206 -20 -22 -21 -42 -117 -50
-235 l-7 -91 43 -12 c29 -8 118 -11 266 -8 253 3 254 4 273 86 6 26 22 134 37
241 29 216 27 234 -26 245 -18 3 -142 6 -276 6 l-244 0 0 -63z m370 -313 c0
-3 -5 -14 -10 -25 -10 -17 -22 -19 -135 -19 -115 0 -125 2 -125 18 0 10 3 22
7 25 8 8 263 9 263 1z"/>
<path d="M3862 2633 c-34 -7 -49 -39 -66 -133 -29 -174 -30 -186 -7 -209 20
-20 32 -21 211 -21 105 0 190 -4 190 -8 0 -5 -6 -16 -12 -25 -11 -15 -40 -17
-218 -19 l-205 -3 -3 -61 c-4 -92 -13 -89 279 -89 237 0 249 1 269 20 21 22
42 112 55 236 6 60 5 69 -14 88 -20 20 -31 21 -206 21 -175 0 -185 1 -185 19
0 10 7 22 16 25 9 3 92 6 184 6 106 0 178 4 194 11 26 12 39 41 51 112 l6 37
-258 -1 c-142 -1 -268 -4 -281 -6z"/>
<path d="M950 1675 c0 -108 1 -115 20 -115 18 0 20 7 20 75 0 41 3 75 7 75 4
0 42 -34 84 -76 44 -43 82 -74 88 -70 7 5 11 48 11 117 0 102 -1 109 -20 109
-18 0 -20 -7 -20 -77 l0 -78 -78 78 c-107 107 -112 105 -112 -38z"/>
<path d="M1282 1778 c-8 -8 -12 -48 -12 -115 0 -96 1 -103 20 -103 17 0 20 7
20 50 l0 50 70 0 70 0 0 -50 c0 -47 2 -50 25 -50 25 0 25 0 25 96 0 134 0 134
-113 134 -59 0 -97 -4 -105 -12z m168 -53 c0 -24 -2 -25 -70 -25 -68 0 -70 1
-70 25 0 24 2 25 70 25 68 0 70 -1 70 -25z"/>
<path d="M1590 1675 c0 -108 1 -115 20 -115 17 0 20 7 20 50 l0 50 85 0 c92 0
105 8 105 65 0 59 -11 65 -125 65 l-105 0 0 -115z m180 50 c0 -24 -2 -25 -70
-25 -68 0 -70 1 -70 25 0 24 2 25 70 25 68 0 70 -1 70 -25z"/>
<path d="M1922 1778 c-8 -8 -12 -46 -12 -105 0 -111 2 -113 119 -113 101 0
111 11 111 118 0 109 -3 112 -113 112 -59 0 -97 -4 -105 -12z m168 -103 l0
-76 -67 3 -68 3 -3 73 -3 72 71 0 70 0 0 -75z"/>
<path d="M2220 1695 c0 -82 3 -98 20 -115 17 -17 33 -20 115 -20 88 0 95 1 95
20 0 19 -7 20 -90 20 l-90 0 0 95 c0 95 0 95 -25 95 -25 0 -25 0 -25 -95z"/>
<path d="M2540 1770 c0 -17 7 -20 50 -20 l51 0 -3 -72 -3 -73 -47 -3 c-40 -3
-48 -6 -48 -23 0 -18 8 -19 115 -19 107 0 115 1 115 19 0 16 -8 20 -42 23
l-43 3 -3 73 -3 72 46 0 c38 0 45 3 45 20 0 19 -7 20 -115 20 -108 0 -115 -1
-115 -20z"/>
<path d="M2860 1770 c0 -17 7 -20 50 -20 l50 0 0 -95 c0 -88 1 -95 20 -95 19
0 20 7 20 95 l0 95 45 0 c38 0 45 3 45 20 0 19 -7 20 -115 20 -108 0 -115 -1
-115 -20z"/>
<path d="M3190 1771 c-5 -11 -10 -63 -10 -115 0 -88 2 -96 19 -96 17 0 20 8
23 48 l3 47 73 3 72 3 0 -51 c0 -43 3 -50 20 -50 19 0 20 7 20 103 0 67 -4
107 -12 115 -8 8 -46 12 -105 12 -81 0 -94 -2 -103 -19z m180 -46 c0 -24 -2
-25 -75 -25 -73 0 -75 1 -75 25 0 24 2 25 75 25 73 0 75 -1 75 -25z"/>
<path d="M3507 1783 c-4 -3 -7 -55 -7 -115 0 -101 1 -108 20 -108 18 0 20 7
20 75 0 41 3 75 7 75 4 0 42 -34 84 -76 44 -43 82 -74 88 -70 7 5 11 48 11
117 0 102 -1 109 -20 109 -18 0 -20 -7 -20 -77 l0 -78 -78 78 c-74 74 -91 85
-105 70z"/>
<path d="M3830 1771 c-5 -11 -10 -55 -10 -99 0 -103 9 -112 114 -112 114 0
116 2 116 113 0 59 -4 97 -12 105 -8 8 -46 12 -105 12 -81 0 -94 -2 -103 -19z
m178 -93 l-3 -73 -70 0 -70 0 -3 73 -3 72 76 0 76 0 -3 -72z"/>
</g>
</svg>
